Coordinates
version=1
nRows=14
nColumns=36
inDegrees=yes

Units are S.I. units (second, meters, Newtons, ...)
If the header above contains a line with 'inDegrees', this indicates whether rotational values are in degrees (yes) or radians (no).

endheader
time	pelvis_tilt	pelvis_list	pelvis_rotation	pelvis_tx	pelvis_ty	pelvis_tz	hip_flexion_r	hip_adduction_r	hip_rotation_r	knee_angle_r	knee_angle_r_beta	ankle_angle_r	subtalar_angle_r	mtp_angle_r	hip_flexion_l	hip_adduction_l	hip_rotation_l	knee_angle_l	knee_angle_l_beta	ankle_angle_l	subtalar_angle_l	mtp_angle_l	lumbar_extension	lumbar_bending	lumbar_rotation	arm_flex_r	arm_add_r	arm_rot_r	elbow_flex_r	pro_sup_r	arm_flex_l	arm_add_l	arm_rot_l	elbow_flex_l	pro_sup_l
      6.71666670	    -23.48994108	     -0.67956255	      5.02883665	      0.41964686	      0.80889439	     -0.16720555	     65.16519315	    -18.13969129	     -4.87018630	     72.32961940	      1.26239001	     33.34964085	     -3.48272123	     -7.49999987	     66.19477801	    -12.29859488	     -5.90986890	     70.52873242	      1.23095860	     28.14190393	      3.84145216	     -7.49999987	    -25.60192974	     -3.98544633	     -2.10733215	     77.11819322	      4.37071906	     65.16076574	    121.61941997	     90.65920016	     76.89175009	     11.13293004	     74.61590380	    123.94904980	     89.62759323
      6.73333330	    -23.04860146	     -0.71315588	      4.94882046	      0.42039569	      0.81991656	     -0.16724413	     63.30815789	    -17.81921679	     -5.33316285	     70.18714698	      1.22499681	     32.44894397	     -3.69657530	     -7.49999987	     64.21191204	    -12.23039274	     -6.38335725	     68.18156390	      1.18999278	     27.73557544	      4.46415313	     -7.49999987	    -24.80854149	     -3.94984565	     -1.86003856	     76.43163814	      4.47389279	     65.40052028	    121.58639065	     90.58179446	     75.77013519	     11.21106676	     73.89242867	    123.16585685	     89.41260974
      6.75000000	    -22.56144539	     -0.85471591	      4.93315024	      0.41764761	      0.83316046	     -0.16424493	     61.33992957	    -17.24861781	     -5.93549458	     67.83475155	      1.18393976	     31.12788752	     -4.27293506	     -7.49999987	     62.29427138	    -12.21927642	     -6.63481023	     65.67564306	      1.14625621	     26.88393255	      4.75512739	     -7.49999987	    -24.28291168	     -3.87610449	     -1.64197462	     76.13408081	      4.69096181	     64.73709091	    121.35657521	     90.36304812	     75.63991360	     11.39845995	     72.39044494	    122.04813878	     88.92976409
      6.76666670	    -22.10697042	     -1.00338787	      4.98905037	      0.41895660	      0.84369073	     -0.16443738	     59.40347950	    -16.88489835	     -6.70238119	     65.36901714	      1.14090458	     29.76995630	     -4.99724415	     -7.49999987	     60.57028407	    -12.16097339	     -6.83411181	     63.38190323	      1.10622290	     25.73795499	      4.67858473	     -7.49999987	    -23.69394749	     -3.76253932	     -1.29524350	     75.40184004	      4.67169263	     64.05135929	    121.23602538	     90.21569059	     75.55849987	     11.88195425	     71.33235502	    121.33091316	     88.39494994
      6.78333330	    -21.83370016	     -1.03162311	      4.94719114	      0.42508329	      0.85388973	     -0.16577570	     57.45318081	    -16.52157798	     -7.21763615	     62.74749236	      1.09515034	     28.58499376	     -5.38807051	     -7.49999987	     58.68971056	    -12.05395355	     -7.19489834	     61.03188253	      1.06520730	     25.03442257	      4.71069521	     -7.49999987	    -22.78290414	     -3.74648802	     -1.40130584	     74.94070837	      4.84239053	     63.66138777	    121.20014148	     90.09678732	     74.71308489	     11.98218061	     70.65053203	    120.90578538	     87.87341112
      6.80000000	    -21.65719163	     -0.94554894	      4.82113975	      0.43403874	      0.86356069	     -0.17026723	     55.37996873	    -16.36177895	     -7.69449593	     59.86761372	      1.04488697	     27.44382036	     -5.44303556	     -7.49999987	     56.52074049	    -11.81253582	     -7.87112584	     58.40456074	      1.01935188	     24.61623599	      5.43827676	     -7.49999987	    -21.51038071	     -3.65447124	     -1.39516222	     73.40966511	      4.67559805	     63.81561147	    121.26282858	     90.07083394	     73.32222596	     12.28264325	     70.42987116	    120.77545240	     87.65903778
      6.81666670	    -21.30425573	     -0.99882898	      4.60757278	      0.43898316	      0.87693213	     -0.17242967	     52.98719605	    -15.89494954	     -8.04261357	     56.67436168	      0.98915421	     26.13119292	     -6.09823240	     -7.49999987	     54.09954966	    -11.59906040	     -8.42162401	     55.69492523	      0.97205982	     24.26372351	      6.07382905	     -7.49999987	    -20.53262949	     -3.47082320	     -1.42496608	     72.30244345	      4.52799099	     63.67966916	    121.34634141	     89.95200003	     71.15047894	     12.05826689	     69.62352075	    120.11180646	     87.09306763
      6.83333330	    -21.39669084	     -1.00925147	      4.50406110	      0.43915112	      0.88265594	     -0.17231997	     51.49578635	    -15.65597240	     -8.40848478	     54.03873981	      0.94315393	     25.08088134	     -5.99884174	     -7.49999987	     52.33449424	    -11.04781949	     -8.62856662	     52.98495410	      0.92476190	     23.70108867	      6.39416484	     -7.49999987	    -19.08584161	     -3.35407346	     -1.37998725	     71.51064445	      4.53091943	     63.95321519	    121.20897536	     89.92181105	     70.42096927	     12.52235273	     69.49785634	    119.82490336	     86.89571783
      6.85000000	    -21.11926220	     -1.03576911	      4.54061344	      0.44874248	      0.89552509	     -0.17049386	     49.06576384	    -15.20902506	     -8.95120560	     50.99911973	      0.89010255	     24.02998123	     -6.32202238	     -7.49999987	     49.86797709	    -10.54700404	     -8.62632792	     49.88412112	      0.87064216	     22.86048337	      6.51153872	     -7.49999987	    -17.77006420	     -3.28564209	     -1.15225138	     70.31937717	      4.32362549	     64.23404921	    121.08995779	     89.77585423	     68.43483605	     12.44619193	     70.12000723	    120.04151923	     86.58429630
      6.86666670	    -20.29615626	     -1.15801462	      4.63139930	      0.45310129	      0.91049273	     -0.17263629	     46.07217743	    -14.66538997	     -9.53586555	     47.84314648	      0.83502043	     22.48510809	     -6.70024322	     -7.49999987	     46.88489324	    -10.10721720	     -8.36444000	     46.75204463	      0.81597711	     21.32292317	      6.18818694	     -7.49999987	    -17.15710657	     -2.81008705	     -0.96964421	     69.28516498	      4.35514575	     64.79165930	    121.01958661	     86.85904138	     67.47788754	     12.45639121	     70.51455282	    120.08280413	     83.43916473
      6.88333330	    -19.92440671	     -1.13847277	      5.17334832	      0.45714377	      0.91601516	     -0.17073836	     43.75072490	    -14.44531453	    -10.19140794	     45.18019152	      0.78854310	     21.57485888	     -6.84811553	     -7.49999987	     44.75702777	     -9.46247094	     -8.13211078	     44.07625301	      0.76927574	     19.98635879	      5.85013225	     -7.49999987	    -15.89829248	     -2.57380874	     -1.09443589	     67.78827849	      4.42821968	     65.68193335	    120.93043136	     85.75696866	     66.38356002	     12.45506678	     71.11340773	    120.03321111	     82.44915992
      6.90000000	    -19.32788013	     -1.32462066	      5.21647058	      0.45680990	      0.92211038	     -0.17090483	     41.34584217	    -13.67298713	    -10.53075933	     42.15278102	      0.73570482	     20.27964300	     -7.65429493	     -7.49999987	     42.57757855	     -9.10763224	     -7.34057617	     41.60385162	      0.72612419	     19.17420415	      5.20216408	     -7.49999987	    -15.10471215	     -2.13838343	     -0.47754233	     66.95790649	      4.36683965	     65.63961390	    121.49879323	     85.98711467	     65.54357563	     12.15578287	     70.94441949	    120.90015717	     82.34594533
      6.91666670	    -19.14608648	     -1.48718646	      5.25934793	      0.46074885	      0.92685980	     -0.17293281	     39.92952177	    -13.07661744	    -10.47096306	     40.04149621	      0.69885595	     19.37022438	     -8.34928793	     -7.49999987	     40.90548395	     -8.56972791	     -6.44516927	     39.01457444	      0.68093278	     18.36483481	      4.27489812	     -7.49999987	    -13.86942036	     -1.75653103	      0.00021105	     66.82072774	      4.38861371	     66.26978184	    121.86468749	     85.97901225	     65.10527332	     12.29098961	     71.30568523	    121.33209818	     82.23352823
      6.93333330	    -18.81750524	     -1.67451642	      5.06796800	      0.46171383	      0.93746483	     -0.17172821	     38.35385724	    -12.24415207	    -10.26938408	     37.67359852	      0.65752834	     18.32348246	     -8.87961850	     -7.49999987	     39.34186876	     -8.23247159	     -5.45064706	     36.73433709	      0.64113513	     17.51281292	      3.49897682	     -7.49999987	    -13.00311423	     -1.46961311	      0.23047331	     66.01267412	      4.24903873	     66.42413961	    122.11491110	     83.38123081	     64.24963978	     11.65194590	     71.56703150	    121.69631391	     79.82876771
